External Loads File
version=1
nRows=54
nColumns=13
Range=5.000000e-03-10 seconds
endheader
time 	forceRightX 	forceRightY 	forceRightZ 	pointRightX 	pointRightY 	pointRightZ 	forceLeftX 	forceLeftY 	forceLeftZ 	pointLeftX 	pointLeftY 	pointLeftZ 		
7.505000 -12.522685 -46.547299 -0.000000 0.127054 0.410074 -0.160425 -38.707929 704.463620 -0.000000 0.362766 0.223247 -0.400410
7.510000 -24.322094 -51.426509 -0.000000 0.133953 0.418697 -0.160698 -21.784718 721.002581 -0.000000 0.356815 0.214451 -0.400306
7.515000 -36.953602 -55.956446 -0.000000 0.141414 0.427061 -0.160951 -2.581942 735.781743 -0.000000 0.350361 0.206081 -0.399903
7.520000 -49.866476 -59.803255 -0.000000 0.149255 0.434816 -0.161326 17.847796 748.288096 -0.000000 0.343371 0.198181 -0.400472
7.525000 -62.712227 -62.519217 -0.000000 0.157676 0.442473 -0.161518 40.319927 758.067567 -0.000000 0.335969 0.190748 -0.400435
7.530000 -74.971677 -63.827779 -0.000000 0.166351 0.449341 -0.161831 62.866527 764.878466 -0.000000 0.328160 0.183824 -0.400323
7.535000 -86.341834 -63.265398 -0.000000 0.175355 0.455803 -0.162123 85.765573 768.546120 -0.000000 0.320008 0.177416 -0.400499
7.540000 -96.489927 -60.448479 -0.000000 0.184627 0.461703 -0.162437 108.457258 769.041916 -0.000000 0.311508 0.171526 -0.400467
7.545000 -105.092187 -55.122990 -0.000000 0.193778 0.467180 -0.162979 129.927290 766.492826 -0.000000 0.302708 0.166163 -0.400478
7.550000 -112.059430 -46.704591 -0.000000 0.204029 0.471795 -0.162678 152.242834 760.499488 -0.000000 0.293694 0.161280 -0.400516
7.555000 -116.931631 -35.520595 -0.000000 0.213813 0.476047 -0.163193 172.154360 751.572164 -0.000000 0.284428 0.157216 -0.400692
7.560000 -119.604994 -21.275876 -0.000000 0.224522 0.479439 -0.163014 192.349448 738.998554 -0.000000 0.275038 0.153628 -0.400901
7.565000 -119.736381 -5.025303 -0.000000 0.234145 0.482258 -0.163536 208.480681 723.712557 -0.000000 0.265513 0.150582 -0.401239
7.570000 -117.312444 13.203499 -0.000000 0.244199 0.484224 -0.163839 223.767714 704.644874 -0.000000 0.255853 0.148310 -0.401477
7.575000 -112.293343 32.599420 -0.000000 0.254265 0.486056 -0.163975 237.269472 681.648170 -0.000000 0.246076 0.146855 -0.401536
7.580000 -104.789791 52.423316 -0.000000 0.264513 0.487053 -0.164057 248.753149 654.280356 -0.000000 0.236352 0.146146 -0.401598
7.585000 -95.226918 71.717432 -0.000000 0.274061 0.487691 -0.164312 256.366325 622.671912 -0.000000 0.226643 0.146128 -0.401622
7.590000 -83.996115 90.047638 -0.000000 0.283569 0.487830 -0.164393 260.802631 585.929655 -0.000000 0.217115 0.146742 -0.401610
7.595000 -71.718194 106.914085 -0.000000 0.292714 0.487351 -0.164557 261.348429 543.645777 -0.000000 0.207760 0.148233 -0.401553
7.600000 -59.078395 122.052443 -0.000000 0.301582 0.486550 -0.164618 257.637372 495.390800 -0.000000 0.198662 0.150546 -0.401348
7.605000 -46.791671 135.402741 -0.000000 0.310027 0.484998 -0.164579 249.339489 441.059000 -0.000000 0.189824 0.153572 -0.401194
7.610000 -35.509690 147.138191 -0.000000 0.318091 0.482902 -0.164523 236.214835 381.040273 -0.000000 0.181362 0.157394 -0.400859
7.615000 -25.713059 157.696321 -0.000000 0.325764 0.480165 -0.164328 218.295113 316.266103 -0.000000 0.173313 0.162000 -0.400508
7.620000 -17.786956 167.754834 -0.000000 0.332904 0.476608 -0.164241 195.703747 248.416464 -0.000000 0.165647 0.166974 -0.400203
7.625000 -11.731747 178.223747 -0.000000 0.339957 0.472543 -0.163695 169.195160 179.470867 -0.000000 0.158512 0.172565 -0.400097
7.630000 -7.608095 190.121045 -0.000000 0.346328 0.467719 -0.163458 139.498177 111.994847 -0.000000 0.151678 0.178649 -0.400020
7.635000 -5.211150 204.522898 -0.000000 0.352241 0.462399 -0.163204 107.814261 48.461175 -0.000000 0.145188 0.185299 -0.399874
7.640000 -4.382994 222.397621 -0.000000 0.357413 0.456326 -0.163055 75.433533 -8.720012 -0.000000 0.138989 0.192282 -0.399657
7.645000 -4.507032 244.421424 -0.000000 0.362372 0.449572 -0.162555 43.645506 -57.597749 -0.000000 0.133084 0.199730 -0.399377
7.650000 -5.254692 270.779189 -0.000000 0.366935 0.442196 -0.161739 13.574055 -96.497799 -0.000000 0.127195 0.207531 -0.398617
7.655000 -6.336320 301.084548 -0.000000 0.371036 0.433280 -0.161094 -13.683656 -124.385577 -0.000000 0.122180 0.215553 -0.398400
7.660000 -8.229447 334.430732 -0.000000 0.374839 0.424602 -0.160240 -36.779032 -141.061877 -0.000000 0.117597 0.223897 -0.398248
7.665000 -10.546045 369.606463 -0.000000 0.378116 0.415351 -0.159611 -54.906323 -147.105705 -0.000000 0.113464 0.232399 -0.398263
7.670000 -13.190223 405.287585 -0.000000 0.381212 0.406022 -0.159953 -67.435268 -143.795340 -0.000000 0.109680 0.241242 -0.398196
7.675000 -16.076656 440.278946 -0.000000 0.383845 0.396196 -0.160337 -74.077035 -132.956105 -0.000000 0.106285 0.250276 -0.398163
7.680000 -18.500379 473.746956 -0.000000 0.386026 0.385610 -0.160339 -75.060847 -116.592905 -0.000000 0.103242 0.259589 -0.398169
7.685000 -20.717266 505.222462 -0.000000 0.387808 0.374767 -0.160256 -70.636996 -96.901157 -0.000000 0.100659 0.269209 -0.398250
7.690000 -22.720175 534.569970 -0.000000 0.389333 0.363921 -0.160675 -61.469465 -75.828785 -0.000000 0.098507 0.279045 -0.398393
7.695000 -24.292594 561.878759 -0.000000 0.390065 0.353024 -0.161106 -48.510872 -54.928125 -0.000000 0.096772 0.289022 -0.398528
7.700000 -24.607910 587.401030 -0.000000 0.390344 0.341892 -0.161347 -32.930710 -35.295282 -0.000000 0.095615 0.299037 -0.398867
7.705000 -22.898597 611.499520 -0.000000 0.390211 0.330545 -0.161257 -15.926678 -17.740105 -0.000000 0.095127 0.309261 -0.399225
7.710000 -20.464550 634.559276 -0.000000 0.389288 0.319392 -0.161666 1.379870 -2.886864 -0.000000 0.095193 0.319356 -0.399686
7.715000 -16.356902 657.101628 -0.000000 0.387976 0.308352 -0.161436 17.941286 8.862160 -0.000000 0.095925 0.329610 -0.400064
7.720000 -10.313513 679.586526 -0.000000 0.386137 0.297116 -0.161666 32.986117 17.103460 -0.000000 0.097346 0.339754 -0.400397
7.725000 -3.558845 702.348064 -0.000000 0.383803 0.286312 -0.161548 45.846846 21.612594 -0.000000 0.099412 0.349798 -0.400628
7.730000 5.250163 725.587379 -0.000000 0.381041 0.275672 -0.161375 56.005944 22.232427 -0.000000 0.102123 0.359960 -0.400835
7.735000 16.253598 749.331799 -0.000000 0.377710 0.265172 -0.161224 62.998304 19.114732 -0.000000 0.105574 0.370093 -0.401206
7.740000 29.129804 773.578133 -0.000000 0.373842 0.254947 -0.161132 66.428506 12.787958 -0.000000 0.109545 0.380220 -0.401310
7.745000 43.806686 798.315575 -0.000000 0.369467 0.244993 -0.161061 66.053924 4.113136 -0.000000 0.114246 0.390182 -0.401402
7.750000 60.544392 823.433941 -0.000000 0.364580 0.235230 -0.161000 61.912273 -5.838539 -0.000000 0.119594 0.399998 -0.401436
7.755000 78.100127 848.798805 -0.000000 0.359054 0.226017 -0.160975 54.437091 -15.875565 -0.000000 0.125480 0.409417 -0.401392
7.760000 97.284047 873.990713 -0.000000 0.352909 0.216995 -0.160935 44.370811 -25.175863 -0.000000 0.131842 0.418454 -0.401303
7.765000 116.465655 898.733475 -0.000000 0.346517 0.208676 -0.161086 32.635781 -33.096388 -0.000000 0.138749 0.427146 -0.401179
7.770000 137.716763 922.241901 -0.000000 0.339182 0.200635 -0.160871 19.990917 -39.450665 -0.000000 0.146155 0.435364 -0.401061
